<?xml version="1.0" encoding="UTF-8"?>
<svg xmlns="http://www.w3.org/2000/svg" xmlns:xlink="http://www.w3.org/1999/xlink" width="400px" height="400px" viewBox="0 0 400 399" version="1.1">
<defs>
<clipPath id="clip1">
  <path d="M 0.101562 0 L 399.730469 0 L 399.730469 398.828125 L 0.101562 398.828125 Z M 0.101562 0 "/>
</clipPath>
<clipPath id="clip2">
  <path d="M 75.683594 212.238281 L 324.140625 212.238281 L 324.140625 243.855469 L 75.683594 243.855469 Z M 75.683594 212.238281 "/>
</clipPath>
<clipPath id="clip3">
  <path d="M 75.683594 251.320312 L 324.140625 251.320312 L 324.140625 270.859375 L 75.683594 270.859375 Z M 75.683594 251.320312 "/>
</clipPath>
<clipPath id="clip4">
  <path d="M 123.140625 127.96875 L 276.6875 127.96875 L 276.6875 204.777344 L 123.140625 204.777344 Z M 123.140625 127.96875 "/>
</clipPath>
</defs>
<g id="surface1">
<g clip-path="url(#clip1)" clip-rule="nonzero">
<path style="fill-rule:nonzero;fill:rgb(12.54902%,12.54902%,27.45098%);fill-opacity:1;stroke-width:1;stroke-linecap:butt;stroke-linejoin:miter;stroke:rgb(100%,100%,100%);stroke-opacity:1;stroke-miterlimit:4;" d="M 0.00137753 171.426124 C 0.00137753 76.750548 76.749156 0.000000000000003102 171.426309 0.000000000000003102 C 266.103462 0.000000000000003102 342.85124 76.750548 342.85124 171.426124 C 342.85124 266.1017 266.103462 342.852248 171.426309 342.852248 C 76.749156 342.852248 0.00137753 266.1017 0.00137753 171.426124 Z M 171.426309 340.400905 C 264.749543 340.400905 340.401451 264.748424 340.401451 171.426124 C 340.401451 78.103824 264.746191 2.451343 171.426309 2.451343 C 78.103075 2.451343 2.451167 78.103824 2.451167 171.426124 C 2.451167 264.748424 78.103075 340.400905 171.426309 340.400905 Z M 171.426309 340.400905 " transform="matrix(1.165598,0,0,1.163265,0.0999569,-0.000000000000003608)"/>
</g>
<path style=" stroke:none;fill-rule:nonzero;fill:rgb(12.54902%,12.54902%,27.45098%);fill-opacity:1;" d="M 391.734375 199.414062 C 391.734375 93.6875 305.851562 7.976562 199.914062 7.976562 C 93.972656 7.976562 8.09375 93.6875 8.09375 199.414062 C 8.09375 305.140625 93.972656 390.851562 199.914062 390.851562 C 305.851562 390.851562 391.734375 305.140625 391.734375 199.414062 Z M 391.734375 199.414062 "/>
<g clip-path="url(#clip2)" clip-rule="nonzero">
<path style=" stroke:none;fill-rule:nonzero;fill:rgb(100%,100%,100%);fill-opacity:1;" d="M 106.523438 215.480469 L 106.523438 243.425781 L 100.933594 243.425781 L 100.933594 235.878906 L 81.292969 235.878906 L 81.292969 243.425781 L 75.703125 243.425781 L 75.703125 228.054688 C 75.703125 225.804688 76.09375 223.738281 76.867188 221.851562 C 77.636719 219.964844 78.710938 218.34375 80.089844 216.984375 C 81.460938 215.625 83.085938 214.566406 84.964844 213.804688 C 86.84375 213.046875 88.890625 212.671875 91.109375 212.671875 L 103.707031 212.671875 C 104.09375 212.671875 104.457031 212.742188 104.796875 212.882812 C 105.144531 213.027344 105.445312 213.230469 105.703125 213.488281 C 105.960938 213.746094 106.160156 214.042969 106.300781 214.382812 C 106.449219 214.730469 106.523438 215.09375 106.523438 215.480469 Z M 81.292969 228.054688 L 81.292969 230.300781 L 100.933594 230.300781 L 100.933594 218.25 L 91.109375 218.25 C 90.9375 218.25 90.578125 218.273438 90.027344 218.320312 C 89.476562 218.371094 88.839844 218.496094 88.117188 218.695312 C 87.390625 218.894531 86.625 219.203125 85.828125 219.621094 C 85.023438 220.035156 84.285156 220.605469 83.609375 221.332031 C 82.933594 222.066406 82.378906 222.976562 81.945312 224.074219 C 81.511719 225.164062 81.292969 226.488281 81.292969 228.054688 Z M 143.800781 212.671875 L 143.800781 241.046875 C 143.800781 241.445312 143.726562 241.816406 143.582031 242.160156 C 143.429688 242.507812 143.226562 242.804688 142.972656 243.046875 C 142.726562 243.300781 142.429688 243.496094 142.085938 243.636719 C 141.738281 243.785156 141.371094 243.855469 140.984375 243.855469 C 140.644531 243.855469 140.296875 243.792969 139.945312 243.664062 C 139.59375 243.535156 139.28125 243.328125 139.011719 243.039062 L 118.601562 221.761719 L 118.601562 243.425781 L 113.011719 243.425781 L 113.011719 215.050781 C 113.011719 214.476562 113.171875 213.957031 113.496094 213.496094 C 113.816406 213.035156 114.226562 212.6875 114.726562 212.460938 C 115.253906 212.242188 115.800781 212.1875 116.363281 212.292969 C 116.921875 212.402344 117.398438 212.664062 117.796875 213.074219 L 138.222656 234.335938 L 138.222656 212.671875 Z M 178.140625 212.671875 L 178.140625 218.25 L 165.824219 218.25 L 165.824219 243.425781 L 160.246094 243.425781 L 160.246094 218.25 L 147.902344 218.25 L 147.902344 212.671875 Z M 187.875 212.671875 L 187.875 225.242188 L 207.496094 225.242188 L 207.496094 212.671875 L 213.085938 212.671875 L 213.085938 243.425781 L 207.496094 243.425781 L 207.496094 230.855469 L 187.875 230.855469 L 187.875 243.425781 L 182.285156 243.425781 L 182.285156 212.671875 Z M 251.957031 225.109375 L 251.957031 230.988281 C 251.957031 232.859375 251.636719 234.582031 250.992188 236.152344 C 250.34375 237.726562 249.449219 239.085938 248.304688 240.230469 C 247.160156 241.375 245.800781 242.265625 244.230469 242.898438 C 242.664062 243.539062 240.957031 243.855469 239.105469 243.855469 L 231.546875 243.855469 C 229.695312 243.855469 227.984375 243.539062 226.40625 242.898438 C 224.832031 242.265625 223.46875 241.375 222.320312 240.230469 C 221.175781 239.085938 220.277344 237.726562 219.625 236.152344 C 218.976562 234.582031 218.648438 232.859375 218.648438 230.988281 L 218.648438 225.109375 C 218.648438 223.253906 218.976562 221.535156 219.625 219.953125 C 220.277344 218.371094 221.175781 217.011719 222.320312 215.875 C 223.46875 214.742188 224.832031 213.851562 226.40625 213.207031 C 227.984375 212.5625 229.695312 212.238281 231.546875 212.238281 L 239.105469 212.238281 C 240.957031 212.238281 242.664062 212.5625 244.230469 213.207031 C 245.800781 213.851562 247.160156 214.742188 248.304688 215.875 C 249.449219 217.011719 250.34375 218.371094 250.992188 219.953125 C 251.636719 221.535156 251.957031 223.253906 251.957031 225.109375 Z M 246.367188 230.988281 L 246.367188 225.109375 C 246.367188 224.007812 246.195312 223.011719 245.847656 222.113281 C 245.496094 221.222656 245 220.460938 244.363281 219.820312 C 243.722656 219.1875 242.957031 218.695312 242.066406 218.34375 C 241.167969 217.992188 240.179688 217.820312 239.105469 217.820312 L 231.546875 217.820312 C 230.453125 217.820312 229.460938 217.992188 228.570312 218.34375 C 227.671875 218.695312 226.902344 219.1875 226.253906 219.820312 C 225.609375 220.460938 225.113281 221.222656 224.765625 222.113281 C 224.414062 223.011719 224.238281 224.007812 224.238281 225.109375 L 224.238281 230.988281 C 224.238281 232.089844 224.414062 233.085938 224.765625 233.984375 C 225.113281 234.871094 225.609375 235.636719 226.253906 236.277344 C 226.902344 236.90625 227.671875 237.398438 228.570312 237.75 C 229.460938 238.101562 230.453125 238.277344 231.546875 238.277344 L 239.0625 238.277344 C 240.15625 238.277344 241.144531 238.101562 242.039062 237.75 C 242.9375 237.398438 243.707031 236.90625 244.351562 236.277344 C 245 235.636719 245.496094 234.871094 245.847656 233.984375 C 246.195312 233.085938 246.367188 232.089844 246.367188 230.988281 Z M 288.277344 212.671875 L 288.277344 241.046875 C 288.277344 241.445312 288.203125 241.816406 288.050781 242.160156 C 287.902344 242.507812 287.703125 242.804688 287.449219 243.046875 C 287.199219 243.300781 286.902344 243.496094 286.5625 243.636719 C 286.214844 243.785156 285.847656 243.855469 285.460938 243.855469 C 285.113281 243.855469 284.769531 243.792969 284.421875 243.664062 C 284.070312 243.535156 283.757812 243.328125 283.480469 243.039062 L 263.066406 221.761719 L 263.066406 243.425781 L 257.476562 243.425781 L 257.476562 215.050781 C 257.476562 214.476562 257.640625 213.957031 257.960938 213.496094 C 258.285156 213.035156 258.699219 212.6875 259.203125 212.460938 C 259.730469 212.242188 260.273438 212.1875 260.832031 212.292969 C 261.390625 212.402344 261.871094 212.664062 262.273438 213.074219 L 282.6875 234.335938 L 282.6875 212.671875 Z M 324.121094 212.671875 L 324.121094 222.964844 C 324.121094 224.238281 323.960938 225.375 323.636719 226.375 C 323.316406 227.375 322.890625 228.261719 322.363281 229.027344 C 321.828125 229.789062 321.207031 230.441406 320.503906 230.988281 C 319.792969 231.53125 319.058594 231.980469 318.292969 232.332031 C 317.539062 232.675781 316.769531 232.929688 315.988281 233.085938 C 315.207031 233.246094 314.472656 233.324219 313.789062 233.324219 L 311.527344 233.324219 L 311.527344 243.425781 L 305.902344 243.425781 L 305.902344 233.324219 L 303.664062 233.324219 C 302.972656 233.324219 302.234375 233.246094 301.457031 233.085938 C 300.675781 232.929688 299.902344 232.675781 299.140625 232.332031 C 298.371094 231.980469 297.636719 231.53125 296.941406 230.988281 C 296.234375 230.441406 295.613281 229.789062 295.074219 229.027344 C 294.539062 228.261719 294.109375 227.375 293.789062 226.367188 C 293.464844 225.359375 293.304688 224.226562 293.304688 222.964844 L 293.304688 212.671875 L 298.894531 212.671875 L 298.894531 222.964844 C 298.894531 223.691406 299.007812 224.34375 299.238281 224.925781 C 299.464844 225.503906 299.789062 226.003906 300.207031 226.417969 C 300.617188 226.835938 301.121094 227.152344 301.71875 227.375 C 302.3125 227.59375 302.976562 227.703125 303.707031 227.703125 L 313.789062 227.703125 C 314.316406 227.621094 314.859375 227.511719 315.417969 227.375 C 315.972656 227.234375 316.480469 227 316.9375 226.671875 C 317.402344 226.34375 317.785156 225.890625 318.082031 225.304688 C 318.382812 224.71875 318.53125 223.9375 318.53125 222.964844 L 318.53125 212.671875 Z M 324.121094 212.671875 "/>
</g>
<g clip-path="url(#clip3)" clip-rule="nonzero">
<path style=" stroke:none;fill-rule:nonzero;fill:rgb(100%,100%,100%);fill-opacity:1;" d="M 79.859375 266.222656 L 80.355469 264.933594 L 81.523438 262.054688 L 85.683594 252.488281 L 89.855469 252.488281 L 89.855469 262.304688 C 89.855469 263.59375 89.75 264.902344 89.535156 266.222656 C 89.617188 265.992188 90.167969 264.558594 91.1875 261.933594 L 94.949219 252.488281 L 99.757812 252.488281 L 91.871094 270.613281 L 86.140625 270.613281 L 86.140625 262.921875 C 86.140625 261.644531 86.195312 260.304688 86.304688 258.90625 C 86.03125 260.007812 85.542969 261.449219 84.839844 263.234375 L 81.695312 270.613281 L 76.304688 270.613281 L 75.695312 252.488281 L 80.289062 252.488281 L 80.167969 261.574219 C 80.117188 263.78125 80.015625 265.332031 79.859375 266.222656 Z M 127.964844 270.859375 C 126.210938 270.859375 124.84375 270.371094 123.867188 269.394531 C 122.890625 268.410156 122.402344 267.046875 122.402344 265.304688 C 122.402344 263.5625 122.75 261.988281 123.441406 260.589844 C 124.128906 259.1875 125.078125 258.125 126.285156 257.402344 C 127.488281 256.679688 128.882812 256.316406 130.460938 256.316406 C 132.035156 256.316406 133.273438 256.671875 134.175781 257.382812 C 135.078125 258.09375 135.53125 259.039062 135.53125 260.222656 C 135.53125 261.882812 134.882812 263.160156 133.585938 264.046875 C 132.289062 264.9375 130.417969 265.382812 127.964844 265.382812 L 127.230469 265.382812 L 127.230469 265.578125 C 127.230469 266.800781 127.910156 267.414062 129.273438 267.414062 C 129.925781 267.414062 130.566406 267.316406 131.195312 267.125 C 131.828125 266.925781 132.542969 266.617188 133.347656 266.199219 L 133.347656 269.597656 C 132.417969 270.066406 131.550781 270.394531 130.746094 270.582031 C 129.945312 270.765625 129.019531 270.859375 127.964844 270.859375 Z M 129.929688 259.566406 C 129.421875 259.566406 128.953125 259.851562 128.515625 260.425781 C 128.078125 261 127.8125 261.652344 127.71875 262.378906 L 128.078125 262.378906 C 128.980469 262.378906 129.691406 262.210938 130.203125 261.867188 C 130.714844 261.523438 130.972656 261.070312 130.972656 260.507812 C 130.972656 260.242188 130.886719 260.019531 130.722656 259.835938 C 130.558594 259.65625 130.292969 259.566406 129.929688 259.566406 Z M 168.015625 270.859375 C 167.328125 270.859375 166.726562 270.726562 166.214844 270.464844 C 165.699219 270.199219 165.179688 269.734375 164.660156 269.0625 L 164.5625 269.0625 L 163.953125 270.613281 L 160.140625 270.613281 L 164.226562 251.320312 L 169.035156 251.320312 L 168.425781 254.183594 C 168.109375 255.628906 167.734375 256.875 167.304688 257.917969 L 167.40625 257.917969 C 167.804688 257.429688 168.125 257.09375 168.367188 256.90625 C 168.613281 256.71875 168.886719 256.578125 169.191406 256.476562 C 169.5 256.371094 169.855469 256.316406 170.261719 256.316406 C 171.546875 256.316406 172.535156 256.777344 173.222656 257.699219 C 173.90625 258.621094 174.25 259.945312 174.25 261.675781 C 174.25 263.144531 173.957031 264.640625 173.375 266.164062 C 172.792969 267.683594 172.035156 268.847656 171.105469 269.652344 C 170.179688 270.457031 169.148438 270.859375 168.015625 270.859375 Z M 168.277344 260.171875 C 167.863281 260.171875 167.46875 260.40625 167.097656 260.878906 C 166.722656 261.351562 166.425781 261.988281 166.207031 262.785156 C 165.988281 263.589844 165.878906 264.402344 165.878906 265.230469 C 165.878906 265.765625 165.957031 266.195312 166.113281 266.519531 C 166.269531 266.84375 166.515625 267.007812 166.847656 267.007812 C 167.253906 267.007812 167.652344 266.761719 168.039062 266.273438 C 168.425781 265.785156 168.742188 265.140625 168.984375 264.339844 C 169.222656 263.539062 169.34375 262.746094 169.34375 261.960938 C 169.34375 260.765625 168.988281 260.171875 168.277344 260.171875 Z M 206.195312 265.742188 L 199.34375 265.742188 L 200.128906 261.871094 L 206.996094 261.871094 Z M 238.46875 256.316406 C 239.089844 256.316406 239.613281 256.445312 240.039062 256.699219 C 240.457031 256.949219 240.917969 257.449219 241.414062 258.203125 L 241.511719 258.203125 L 241.539062 257.746094 C 241.597656 256.605469 241.699219 255.707031 241.847656 255.054688 L 242.621094 251.320312 L 247.476562 251.320312 L 243.375 270.613281 L 239.539062 270.613281 L 239.664062 269.089844 L 239.5625 269.089844 C 239.09375 269.742188 238.59375 270.199219 238.074219 270.464844 C 237.550781 270.726562 236.9375 270.859375 236.238281 270.859375 C 234.925781 270.859375 233.933594 270.398438 233.253906 269.480469 C 232.578125 268.554688 232.238281 267.230469 232.238281 265.503906 C 232.238281 264.035156 232.53125 262.535156 233.121094 261.003906 C 233.714844 259.472656 234.476562 258.3125 235.402344 257.515625 C 236.332031 256.71875 237.355469 256.316406 238.46875 256.316406 Z M 238.210938 267.007812 C 238.625 267.007812 239.019531 266.765625 239.394531 266.28125 C 239.773438 265.796875 240.074219 265.148438 240.296875 264.339844 C 240.519531 263.527344 240.632812 262.734375 240.632812 261.960938 C 240.632812 260.765625 240.300781 260.171875 239.640625 260.171875 C 239.234375 260.171875 238.835938 260.414062 238.445312 260.902344 C 238.058594 261.390625 237.746094 262.035156 237.503906 262.832031 C 237.261719 263.632812 237.140625 264.429688 237.140625 265.230469 C 237.140625 266.414062 237.5 267.007812 238.210938 267.007812 Z M 276.929688 270.859375 C 275.171875 270.859375 273.804688 270.371094 272.828125 269.394531 C 271.851562 268.410156 271.363281 267.046875 271.363281 265.304688 C 271.363281 263.5625 271.710938 261.988281 272.402344 260.589844 C 273.09375 259.1875 274.042969 258.125 275.246094 257.402344 C 276.449219 256.679688 277.84375 256.316406 279.421875 256.316406 C 280.996094 256.316406 282.234375 256.671875 283.136719 257.382812 C 284.042969 258.09375 284.496094 259.039062 284.496094 260.222656 C 284.496094 261.882812 283.847656 263.160156 282.546875 264.046875 C 281.25 264.9375 279.378906 265.382812 276.929688 265.382812 L 276.199219 265.382812 L 276.199219 265.578125 C 276.199219 266.800781 276.875 267.414062 278.234375 267.414062 C 278.886719 267.414062 279.527344 267.316406 280.15625 267.125 C 280.785156 266.925781 281.503906 266.617188 282.308594 266.199219 L 282.308594 269.597656 C 281.378906 270.066406 280.511719 270.394531 279.714844 270.582031 C 278.910156 270.765625 277.980469 270.859375 276.929688 270.859375 Z M 278.890625 259.566406 C 278.386719 259.566406 277.914062 259.851562 277.472656 260.425781 C 277.035156 261 276.773438 261.652344 276.679688 262.378906 L 277.042969 262.378906 C 277.945312 262.378906 278.652344 262.210938 279.164062 261.867188 C 279.679688 261.523438 279.9375 261.070312 279.9375 260.507812 C 279.9375 260.242188 279.855469 260.019531 279.6875 259.835938 C 279.519531 259.65625 279.253906 259.566406 278.890625 259.566406 Z M 316.53125 270.613281 L 311.710938 270.613281 L 309.910156 256.566406 L 314.691406 256.566406 L 315.023438 264.039062 C 315.023438 264.644531 314.992188 265.132812 314.925781 265.503906 L 315.023438 265.503906 C 315.035156 265.386719 315.109375 265.128906 315.246094 264.722656 C 315.390625 264.320312 315.539062 263.949219 315.695312 263.609375 C 315.855469 263.269531 316.953125 260.921875 318.988281 256.566406 L 324.132812 256.566406 Z M 316.53125 270.613281 "/>
</g>
<g clip-path="url(#clip4)" clip-rule="nonzero">
<path style=" stroke:none;fill-rule:nonzero;fill:rgb(100%,100%,100%);fill-opacity:1;" d="M 141.457031 160.128906 C 138.195312 164.75 138.371094 173.976562 137.109375 180.417969 C 135.515625 188.574219 129.699219 192.9375 123.140625 196.378906 C 125.101562 188.355469 126.769531 180.335938 127.4375 172.3125 C 128.25 162.398438 126.808594 163.042969 135.433594 155.925781 C 147.515625 145.925781 167.125 137.808594 196.402344 132.097656 C 222.007812 127.875 249.042969 127.382812 276.691406 128.445312 C 267.414062 147.269531 237.773438 148.851562 201.59375 144.894531 C 182.714844 145.105469 165.15625 139.816406 141.457031 160.128906 Z M 228.304688 189.066406 C 187.695312 210.269531 146.953125 165.300781 132.753906 196.222656 C 154.6875 177.171875 185.707031 229.34375 228.304688 189.066406 Z M 254.253906 162.5625 C 207.445312 190.863281 155.1875 154.324219 140.539062 181.90625 C 176.113281 169.054688 221.496094 210.550781 254.253906 162.5625 Z M 262.949219 147.183594 C 221.832031 165.507812 158.242188 132.597656 142.375 170.480469 C 174.757812 151.667969 230.433594 185.445312 262.949219 147.183594 Z M 262.949219 147.183594 "/>
</g>
</g>
</svg>
